<svg id="Layer_1" data-name="Layer 1" xmlns="http://www.w3.org/2000/svg" viewBox="0 0 216 98.11"><defs><style>.cls-1{fill:#fff;}.cls-2{fill:#89c541;}</style></defs><path class="cls-1" d="M147.66,5.13H76.72L4.19,23.26V85.11l72.53,18.13h70.94l72.53-18.13V23.26Z" transform="translate(-4.19 -5.13)"/><polygon class="cls-2" points="142.53 7.64 73.47 7.64 7.65 24.1 7.65 74.02 73.47 90.47 142.53 90.47 208.35 74.02 208.35 24.1 142.53 7.64"/><path class="cls-2" d="M147.66,5.13H76.72L4.19,23.26V85.11l72.53,18.13h70.94l72.53-18.13V23.26Zm68.89,77.14L147.21,99.6H77.16l-.47-.12L7.83,82.27V26.1L77.16,8.77h70.05l.48.12L216.55,26.1Z" transform="translate(-4.19 -5.13)"/><path class="cls-1" d="M19.83,40.49H37.9v7.74H29.7V51h7.19v7H29.7v9.45H19.83Z" transform="translate(-4.19 -5.13)"/><path class="cls-1" d="M41.8,40.49h9.8v27H41.8Z" transform="translate(-4.19 -5.13)"/><path class="cls-1" d="M56,40.49h9.8V58.83H76.43l-4.32,8.66H56Z" transform="translate(-4.19 -5.13)"/><path class="cls-1" d="M113.41,40.49H123.5l3.72,14.18h.25a31,31,0,0,1,.68-3.58l3-10.6h10l4.43,27h-9.48L134.81,52.7h-.18a22,22,0,0,1-.65,2.69l-3.9,12.1h-5.72l-3.51-11.42a19.9,19.9,0,0,1-.61-3.37h-.32c-.07,1.08-.14,2.19-.25,3.26l-1.14,11.53h-9.48Z" transform="translate(-4.19 -5.13)"/><path class="cls-1" d="M157.44,67.49H147.07l9.37-27h10.84l9.63,27H166.53l-.89-3.36h-7.41Zm6.48-9.77L162.78,53c-.29-1.14-.47-2.32-.65-3.47h-.36L160,57.72Z" transform="translate(-4.19 -5.13)"/><path class="cls-1" d="M179.31,40.49h11.84c6.08,0,11.23,2.58,11.23,9.39,0,4.08-1.57,5.8-5.22,7v.22a6.84,6.84,0,0,1,1.65,1.61l5.86,8.77h-11.3l-4.3-8.66h-.18v8.66h-9.58Zm9.58,12h.68c1.61,0,3.22-.25,3.22-2.25s-1.46-2.33-3.14-2.33h-.76Z" transform="translate(-4.19 -5.13)"/><path class="cls-1" d="M94.09,40.47H89.22l-14,27h9.31l5.87-5.87h2.83l5.87,5.87h9Z" transform="translate(-4.19 -5.13)"/><path class="cls-2" d="M90.59,57.64l.08.27V57.8c0-.38.12-.75.2-1.11a6.39,6.39,0,0,1,.32-1c.06-.16.12-.31.19-.47l.21-.46.21-.45c.07-.15.15-.29.22-.43l.12-.21.12-.2c.08-.13.16-.27.25-.39l.26-.36a1.15,1.15,0,0,1,.14-.17l.14-.16a4.42,4.42,0,0,1,.59-.56l0,.08a9.05,9.05,0,0,0-1,1.51c-.07.14-.13.29-.2.43l-.1.21-.09.23-.18.45-.17.47c-.06.16-.1.32-.15.48s-.1.33-.14.5l-.14.49c0,.16-.1.32-.16.48-.13.37-.26.74-.4,1.11.85-.19,4.05-1.53,5.34-10.51C96.33,47.74,89.68,48.26,90.59,57.64Z" transform="translate(-4.19 -5.13)"/><path class="cls-2" d="M84.79,54.37s1.78,5.16,5.26,3.91c-.26-.29-.5-.61-.77-.88s-.59-.59-.89-.86l-.46-.4-.47-.38V55.7L88,56l.49.31.48.35.47.38.47.41a4.89,4.89,0,0,1,.37.41C89.89,56.6,88.39,52.27,84.79,54.37Z" transform="translate(-4.19 -5.13)"/></svg>